<?xml version="1.0" encoding="utf-8"?>
<!-- Generator: Adobe Illustrator 19.1.0, SVG Export Plug-In . SVG Version: 6.00 Build 0)  -->
<svg version="1.1" id="Horizontal__x2B__Tag" xmlns="http://www.w3.org/2000/svg" xmlns:xlink="http://www.w3.org/1999/xlink"
	 x="0px" y="0px" viewBox="0 0 181.4 66.2" style="enable-background:new 0 0 181.4 66.2;" xml:space="preserve">
<g>
	<g>
		<g>
			<g>
				<g>
					<path d="M63.9,6h4.3c2.3,0,4.2,0.8,4.2,3.4c0,1.5-0.8,2.8-2.4,3l2.8,4.7h-2.9l-2.3-4.4h-1.2v4.4h-2.4V6z M66.4,10.6h1.4
						c0.9,0,2.1,0,2.1-1.2c0-1.1-1-1.3-1.9-1.3h-1.6V10.6z"/>
					<path d="M77.2,6h2.4v11.1h-2.4V6z"/>
					<path d="M92,8.9C91.5,8.3,90.8,8,89.9,8c-1.8,0-3.2,1.5-3.2,3.6c0,2.1,1.4,3.6,3.1,3.6c1,0,1.8-0.4,2.3-1.2l2,1.5
						c-0.9,1.3-2.5,1.9-4,1.9c-3.5,0-6-2.3-6-5.8c0-3.6,2.5-5.8,6-5.8c1.2,0,2.8,0.4,3.7,1.6L92,8.9z"/>
					<path d="M98.4,6h2.4v4.1h4.7V6h2.4v11.1h-2.4v-4.8h-4.7v4.8h-2.4V6z"/>
					<path d="M113.6,6h2.4v8.8h4.5v2.3h-7V6z"/>
					<path d="M128.7,6h2l4.8,11.1h-2.8l-1-2.3h-4.3l-0.9,2.3h-2.7L128.7,6z M129.7,9.2l-1.3,3.4h2.7L129.7,9.2z"/>
					<path d="M139.7,6h3.3l4.7,7.7h0V6h2.4v11.1H147l-4.8-7.9h0v7.9h-2.4V6z"/>
					<path d="M155.6,6h3.7c3.6,0,6.6,1.5,6.6,5.6c0,3.6-2.9,5.5-6.2,5.5h-4V6z M158,14.8h1.3c2.3,0,4-0.9,4-3.4
						c0-2.2-1.7-3.2-3.8-3.2H158V14.8z"/>
					<path d="M63.9,23.9h3.4v12.3h6.3v3.1h-9.7V23.9z"/>
					<path d="M79.8,23.9h3.4v15.5h-3.4V23.9z"/>
					<path d="M90.7,23.9h5.8c2.7,0,5.7,0.6,5.7,3.9c0,1.7-1.1,2.9-2.7,3.4v0c2,0.3,3.4,1.8,3.4,3.8c0,3.2-3.1,4.3-5.8,4.3h-6.3V23.9
						z M94.1,30.1h2.5c1,0,2.1-0.4,2.1-1.7c0-1.3-1.2-1.6-2.3-1.6h-2.3V30.1z M94.1,36.5h3.1c1.1,0,2.3-0.5,2.3-1.8
						c0-1.5-1.6-1.7-2.8-1.7h-2.6V36.5z"/>
					<path d="M108.6,23.9h6c3.2,0,5.8,1.1,5.8,4.7c0,2.2-1.2,3.8-3.3,4.2l3.9,6.5H117l-3.2-6.2h-1.7v6.2h-3.4V23.9z M112.1,30.3h2
						c1.2,0,2.9,0,2.9-1.7c0-1.6-1.4-1.8-2.6-1.8h-2.2V30.3z"/>
					<path d="M131.5,23.9h2.8l6.7,15.5h-3.8l-1.3-3.3h-6l-1.3,3.3h-3.8L131.5,23.9z M132.8,28.4l-1.9,4.8h3.8L132.8,28.4z"/>
					<path d="M146,23.9h6c3.2,0,5.8,1.1,5.8,4.7c0,2.2-1.2,3.8-3.3,4.2l3.9,6.5h-4.1l-3.2-6.2h-1.7v6.2H146V23.9z M149.4,30.3h2
						c1.2,0,2.9,0,2.9-1.7c0-1.6-1.4-1.8-2.6-1.8h-2.2V30.3z"/>
					<path d="M168.5,32.8l-5.8-8.9h4.2l3.3,5.8l3.5-5.8h4l-5.8,8.9v6.6h-3.4V32.8z"/>
					<path d="M63.9,6h4.3c2.3,0,4.2,0.8,4.2,3.4c0,1.5-0.8,2.8-2.4,3l2.8,4.7h-2.9l-2.3-4.4h-1.2v4.4h-2.4V6z M66.4,10.6h1.4
						c0.9,0,2.1,0,2.1-1.2c0-1.1-1-1.3-1.9-1.3h-1.6V10.6z"/>
					<path d="M77.2,6h2.4v11.1h-2.4V6z"/>
					<path d="M92,8.9C91.5,8.3,90.8,8,89.9,8c-1.8,0-3.2,1.5-3.2,3.6c0,2.1,1.4,3.6,3.1,3.6c1,0,1.8-0.4,2.3-1.2l2,1.5
						c-0.9,1.3-2.5,1.9-4,1.9c-3.5,0-6-2.3-6-5.8c0-3.6,2.5-5.8,6-5.8c1.2,0,2.8,0.4,3.7,1.6L92,8.9z"/>
					<path d="M98.4,6h2.4v4.1h4.7V6h2.4v11.1h-2.4v-4.8h-4.7v4.8h-2.4V6z"/>
					<path d="M113.6,6h2.4v8.8h4.5v2.3h-7V6z"/>
					<path d="M128.7,6h2l4.8,11.1h-2.8l-1-2.3h-4.3l-0.9,2.3h-2.7L128.7,6z M129.7,9.2l-1.3,3.4h2.7L129.7,9.2z"/>
					<path d="M139.7,6h3.3l4.7,7.7h0V6h2.4v11.1H147l-4.8-7.9h0v7.9h-2.4V6z"/>
					<path d="M155.6,6h3.7c3.6,0,6.6,1.5,6.6,5.6c0,3.6-2.9,5.5-6.2,5.5h-4V6z M158,14.8h1.3c2.3,0,4-0.9,4-3.4
						c0-2.2-1.7-3.2-3.8-3.2H158V14.8z"/>
					<path d="M63.9,23.9h3.4v12.3h6.3v3.1h-9.7V23.9z"/>
					<path d="M79.8,23.9h3.4v15.5h-3.4V23.9z"/>
					<path d="M90.7,23.9h5.8c2.7,0,5.7,0.6,5.7,3.9c0,1.7-1.1,2.9-2.7,3.4v0c2,0.3,3.4,1.8,3.4,3.8c0,3.2-3.1,4.3-5.8,4.3h-6.3V23.9
						z M94.1,30.1h2.5c1,0,2.1-0.4,2.1-1.7c0-1.3-1.2-1.6-2.3-1.6h-2.3V30.1z M94.1,36.5h3.1c1.1,0,2.3-0.5,2.3-1.8
						c0-1.5-1.6-1.7-2.8-1.7h-2.6V36.5z"/>
					<path d="M108.6,23.9h6c3.2,0,5.8,1.1,5.8,4.7c0,2.2-1.2,3.8-3.3,4.2l3.9,6.5H117l-3.2-6.2h-1.7v6.2h-3.4V23.9z M112.1,30.3h2
						c1.2,0,2.9,0,2.9-1.7c0-1.6-1.4-1.8-2.6-1.8h-2.2V30.3z"/>
					<path d="M131.5,23.9h2.8l6.7,15.5h-3.8l-1.3-3.3h-6l-1.3,3.3h-3.8L131.5,23.9z M132.8,28.4l-1.9,4.8h3.8L132.8,28.4z"/>
					<path d="M146,23.9h6c3.2,0,5.8,1.1,5.8,4.7c0,2.2-1.2,3.8-3.3,4.2l3.9,6.5h-4.1l-3.2-6.2h-1.7v6.2H146V23.9z M149.4,30.3h2
						c1.2,0,2.9,0,2.9-1.7c0-1.6-1.4-1.8-2.6-1.8h-2.2V30.3z"/>
					<path d="M168.5,32.8l-5.8-8.9h4.2l3.3,5.8l3.5-5.8h4l-5.8,8.9v6.6h-3.4V32.8z"/>
				</g>
			</g>
		</g>
	</g>
	<g>
		<g>
			<g>
				<g>
					<path d="M64.2,54.5c0.6-0.6,1.5-0.9,2.4-0.9c1.8,0,2.5,1,2.5,2v3c0,0.4,0,0.8,0,1.1h-1c0-0.3,0-0.6,0-0.9h0
						c-0.5,0.8-1.2,1.1-2.1,1.1c-1.1,0-2.1-0.6-2.1-1.8c0-1.5,1.5-2.1,3.3-2.1H68v-0.3c0-0.6-0.5-1.3-1.4-1.3
						c-0.9,0-1.3,0.4-1.7,0.7L64.2,54.5z M67.4,56.9c-1.1,0-2.4,0.2-2.4,1.1c0,0.7,0.5,1,1.3,1c1.3,0,1.7-0.9,1.7-1.7v-0.4H67.4z"/>
					<path d="M74.9,55.4c-0.4-0.4-0.9-0.7-1.5-0.7c-1.2,0-1.9,1-1.9,2.1c0,1.1,0.8,2,1.9,2c0.6,0,1.1-0.2,1.4-0.7l0.8,0.8
						c-0.6,0.6-1.4,0.9-2.3,0.9c-1.8,0-3.1-1.3-3.1-3.1c0-1.8,1.3-3.1,3.1-3.1c0.9,0,1.7,0.3,2.3,0.9L74.9,55.4z"/>
					<path d="M81,55.4c-0.4-0.4-0.9-0.7-1.5-0.7c-1.2,0-1.9,1-1.9,2.1c0,1.1,0.8,2,1.9,2c0.6,0,1.1-0.2,1.4-0.7l0.8,0.8
						c-0.6,0.6-1.4,0.9-2.3,0.9c-1.8,0-3.1-1.3-3.1-3.1c0-1.8,1.3-3.1,3.1-3.1c0.9,0,1.7,0.3,2.3,0.9L81,55.4z"/>
					<path d="M83.6,57.2c0,1,1,1.7,2,1.7c0.7,0,1.2-0.4,1.6-0.9l0.9,0.7c-0.6,0.8-1.5,1.2-2.6,1.2c-1.9,0-3.1-1.4-3.1-3.1
						c0-1.8,1.3-3.1,3.1-3.1c2.1,0,2.9,1.6,2.9,3.1v0.4H83.6z M87.2,56.3c0-1-0.6-1.7-1.7-1.7c-1.1,0-1.8,0.9-1.8,1.7H87.2z"/>
					<path d="M92.9,55.3c-0.3-0.3-0.6-0.6-1.2-0.6c-0.5,0-1,0.2-1,0.7c0,0.7,1,0.8,1.5,0.9c1,0.2,1.7,0.6,1.7,1.7
						c0,1.3-1.2,1.9-2.4,1.9c-1,0-1.7-0.3-2.3-1.1l0.9-0.7c0.4,0.4,0.8,0.7,1.4,0.7c0.6,0,1.2-0.2,1.2-0.8c0-0.7-0.9-0.8-1.4-0.9
						c-1-0.2-1.8-0.6-1.8-1.7c0-1.2,1.1-1.8,2.3-1.8c0.8,0,1.6,0.3,2,1L92.9,55.3z"/>
					<path d="M98.4,55.3c-0.3-0.3-0.7-0.6-1.2-0.6c-0.5,0-1,0.2-1,0.7c0,0.7,1,0.8,1.5,0.9c1,0.2,1.7,0.6,1.7,1.7
						c0,1.3-1.2,1.9-2.4,1.9c-1,0-1.7-0.3-2.3-1.1l0.9-0.7c0.4,0.4,0.8,0.7,1.4,0.7c0.6,0,1.2-0.2,1.2-0.8c0-0.7-0.9-0.8-1.4-0.9
						c-1-0.2-1.8-0.6-1.8-1.7c0-1.2,1.1-1.8,2.3-1.8c0.8,0,1.6,0.3,2,1L98.4,55.3z"/>
					<path d="M104.8,54.8h-1.3v-1h1.3v-1.3c0-1.6,0.5-2.4,2-2.4c0.3,0,0.5,0,0.8,0.1l-0.1,1c-0.2-0.1-0.4-0.1-0.6-0.1
						c-0.8,0-1,0.5-1,1.3v1.4h1.3v1h-1.4v5h-1.1V54.8z"/>
					<path d="M108.5,53.8h1.1v0.9h0c0.3-0.6,1-1.1,1.8-1.1c0.2,0,0.3,0,0.5,0.1l-0.1,1.2c-0.2-0.1-0.4-0.1-0.6-0.1
						c-1.1,0-1.7,0.6-1.7,1.9v3h-1.1V53.8z"/>
					<path d="M113.8,57.2c0,1,1,1.7,2,1.7c0.7,0,1.2-0.4,1.6-0.9l0.9,0.7c-0.6,0.8-1.5,1.2-2.6,1.2c-1.9,0-3.1-1.4-3.1-3.1
						c0-1.8,1.3-3.1,3.1-3.1c2.1,0,2.9,1.6,2.9,3.1v0.4H113.8z M117.3,56.3c0-1-0.6-1.7-1.7-1.7c-1.1,0-1.8,0.9-1.8,1.7H117.3z"/>
					<path d="M120.7,57.2c0,1,1,1.7,2,1.7c0.7,0,1.2-0.4,1.6-0.9l0.9,0.7c-0.6,0.8-1.5,1.2-2.6,1.2c-1.9,0-3.1-1.4-3.1-3.1
						c0-1.8,1.3-3.1,3.1-3.1c2.1,0,2.9,1.6,2.9,3.1v0.4H120.7z M124.3,56.3c0-1-0.6-1.7-1.7-1.7c-1.1,0-1.8,0.9-1.8,1.7H124.3z"/>
					<path d="M126.9,50.3h1.1v9.5h-1.1V50.3z"/>
					<path d="M129.1,53.8h1.3l1.8,4.6h0l1.7-4.6h1.2l-2.8,7.2c-0.4,1-0.8,1.7-2,1.7c-0.3,0-0.7,0-1-0.2l0.1-1
						c0.2,0.1,0.5,0.1,0.7,0.1c0.7,0,0.9-0.4,1.2-1l0.4-0.9L129.1,53.8z"/>
					<path d="M135.2,59c0-0.5,0.4-0.8,0.8-0.8c0.5,0,0.8,0.4,0.8,0.8c0,0.5-0.4,0.8-0.8,0.8C135.6,59.8,135.2,59.4,135.2,59z"/>
				</g>
			</g>
		</g>
		<g>
			<path d="M141.4,50.1c1.6,0,2.9,1.3,2.9,2.9c0,1.6-1.3,2.9-2.9,2.9s-2.9-1.3-2.9-2.9C138.6,51.4,139.8,50.1,141.4,50.1z
				 M141.4,55.3c1.3,0,2.3-1.1,2.3-2.3c0-1.3-1.1-2.3-2.3-2.3c-1.3,0-2.3,1.1-2.3,2.3C139.1,54.3,140.1,55.3,141.4,55.3z
				 M140.3,51.3h1.3c0.8,0,1.2,0.4,1.2,1c0,0.6-0.3,0.8-0.8,0.9l0.9,1.4h-0.6l-0.8-1.3h-0.4v1.3h-0.6V51.3z M140.9,52.8h0.4
				c0.4,0,0.8,0,0.8-0.5c0-0.4-0.4-0.5-0.8-0.5h-0.4V52.8z"/>
		</g>
	</g>
</g>
<g>
	<path d="M46.7,3.5H6.3C4.9,3.5,3.7,4.6,3.7,6v33.3h42.9c1.4,0,2.5-1.1,2.5-2.5V6C49.2,4.6,48,3.5,46.7,3.5z"/>
	<path d="M4.7,40.7l21.3,15c1.8,1.2,4.1,0,4.1-2l0-10.8L3.7,39.7C3.8,40.2,4.2,40.4,4.7,40.7z"/>
</g>
</svg>
